<svg width="32" height="33" viewBox="0 0 32 33" fill="none" xmlns="http://www.w3.org/2000/svg">
<path d="M32 32.5H0V0.5H32V32.5Z" stroke="#E5E7EB"/>
<path d="M32 32.5H0V0.5H32V32.5Z" stroke="#E5E7EB"/>
<g clip-path="url(#clip0_65_9)">
<path d="M10.4001 22.5C16.1451 22.5 20.8001 17.575 20.8001 11.5C20.8001 5.425 16.1451 0.5 10.4001 0.5C4.65506 0.5 5.89423e-05 5.425 5.89423e-05 11.5C5.89423e-05 13.9125 0.735059 16.1437 1.98006 17.9625C1.80506 18.55 1.54506 19.0688 1.27006 19.5063C1.03006 19.8938 0.785059 20.1938 0.605059 20.4C0.515059 20.5 0.440059 20.5813 0.390059 20.6313C0.365059 20.6562 0.345059 20.675 0.335059 20.6812L0.325059 20.6938C0.0500589 20.95 -0.0699411 21.4 0.0400589 21.8062C0.150059 22.2125 0.455059 22.5 0.800059 22.5C1.89006 22.5 2.99006 22.15 3.90506 21.7188C4.36506 21.5 4.79506 21.2563 5.17006 21.0063C6.70506 21.9563 8.49006 22.5 10.4001 22.5ZM22.4001 11.5C22.4001 18.5187 17.4451 23.8062 11.5751 24.4375C12.7901 29.0875 16.8201 32.5 21.6001 32.5C23.5101 32.5 25.2951 31.9563 26.8351 31.0063C27.2101 31.2563 27.6351 31.5 28.0951 31.7188C29.0101 32.15 30.1101 32.5 31.2001 32.5C31.5451 32.5 31.8551 32.2188 31.9601 31.8062C32.0651 31.3937 31.9501 30.9438 31.6701 30.6875L31.6601 30.675C31.6501 30.6625 31.6301 30.65 31.6051 30.625C31.5551 30.575 31.4801 30.5 31.3901 30.3937C31.2101 30.1875 30.9651 29.8875 30.7251 29.5C30.4501 29.0625 30.1901 28.5375 30.0151 27.9562C31.2601 26.1437 31.9951 23.9125 31.9951 21.4937C31.9951 15.6937 27.7501 10.9375 22.3651 10.525C22.3851 10.8438 22.3951 11.1687 22.3951 11.4937L22.4001 11.5Z" fill="#262626"/>
</g>
<defs>
<clipPath id="clip0_65_9">
<path d="M0 0.5H32V32.5H0V0.5Z" fill="white"/>
</clipPath>
</defs>
</svg>
